<svg version="1.2" xmlns="http://www.w3.org/2000/svg" viewBox="0 0 763 188" width="763" height="188"><style>.a{fill:#fff}.b{paint-order:stroke fill markers;stroke:#186fff;stroke-width: 70;stroke-linejoin: round;;fill:#fff}</style><path class="a" d="m264.2 146.4c20.9 0 37.1-9.3 37.1-30.4 0-20.5-18.1-27.7-33.6-33.9-11.5-4.6-21.7-8.9-21.7-17.8 0-8.4 7.6-12.6 17.6-12.6 13.6 0 22.3 4.9 27.3 12.4l10.8-10.9c-7.7-9-20.9-15.4-38.5-15.4-19 0-33.7 10.3-33.7 27.8 0 17.2 15.8 23 30.5 28.6 12.9 5 25.1 9.9 24.9 22.6-0.1 10-8.4 14.2-20.1 14.2-13.4 0-25.6-6.3-29.9-16.9l-11.7 11.7c8 12.3 23.8 20.6 41 20.6zm132-107.2l-20.9 0.1-41.4 43.2v-43.3h-16.3v105.8h16.3v-53.7l62.3 59.3v-21.1l-45.8-43.2zm62.4 58.6c13.3-2.7 23.1-13.9 23.1-28 0-17-13.5-30.6-30.3-30.6h-40.7v105.8h16.2v-46.3h15.4l24.4 46.3h18.1zm-31.7-12.3v-32h24.1c8.8 0 16 7.1 16 16 0 8.8-7.1 16-16 16zm123.4 5.1c7.8-4.4 12.8-12 12.8-22.7 0-17.3-13.4-28.6-30.1-28.6h-36.8v105.7h44.8c16.6 0 29.9-11 29.9-28.3 0-14-8.6-22.9-20.6-26.1zm-3.4-21.1c0 8.7-7 16-15.8 16h-18.9v-32h18.9c8.8 0 15.8 7.2 15.8 16zm-8.2 61.3h-26.5v-32h26.5c8.9 0 16 7.3 16 15.9 0 8.8-7.1 16.1-16 16.1zm96.8-33c13.2-2.7 23.1-13.8 23.1-27.9 0-17.1-13.5-30.6-30.3-30.6h-40.8v105.7h16.2v-46.2h15.4l24.4 46.2h18.2zm-31.7-12.2v-32h24.1c8.7 0 15.9 7 15.9 15.9 0 8.9-7 16.1-15.9 16.1zm69.2 59.5h31.3c29.2 0 52.9-23.7 52.9-52.9 0-29.2-23.7-52.9-52.9-52.9h-31.3zm16.1-14.2v-77.3h15.1c20.6 0 36.8 17.1 36.8 38.6 0 21.6-16.2 38.7-36.8 38.7z"/><path class="b" d="m82.8 147.4c21.6 0 39.2-10 39.2-31.4 0-20.5-18.3-27.7-33.5-33.7-10.8-4.3-19.9-7.9-19.9-15.1 0-6.5 5.9-10.6 14.4-10.6 10.4 0 17.9 3.7 24.3 11l13.9-13.4c-8.6-9.2-22.2-15.4-38.8-15.4-20.3 0-35.7 11.5-35.7 29.2 0 17.1 15.2 23.6 29.6 29.2 12.4 4.8 24.1 9.2 24.1 19-0.1 8.2-7.3 11.5-16.9 11.5-11.8 0-21.7-5.1-27.8-14.4l-14.6 14.5c8.9 11.7 24.7 19.6 41.7 19.6z"/></svg>